<svg width="167" height="24" viewBox="0 0 167 24" fill="none" xmlns="http://www.w3.org/2000/svg">
<path fill-rule="evenodd" clip-rule="evenodd" d="M26.0187 3.24323H0V0H29.4422V8.4324H0V5.18917H26.0187V3.24323Z" fill="white"/>
<path d="M29.4422 13.6217H3.42352V15.5676H29.4422V24H0V20.7568H26.0187V18.8108H0V10.3784H29.4422V13.6217Z" fill="white"/>
<path d="M157.984 11.3247C157.984 9.48871 159.537 8.35962 162.3 8.35962C165.073 8.35962 166.675 9.48871 166.842 11.4131V11.7076H164.728C164.66 10.5 163.696 10.1073 162.31 10.1073C160.933 10.1073 160.186 10.5 160.186 11.2756C160.186 12.0414 160.806 12.3262 161.681 12.444L163.588 12.6993C165.613 12.9742 167 13.8676 167 15.7331C167 17.6182 165.535 18.9534 162.585 18.9534C159.616 18.9534 157.895 17.6182 157.777 15.8214V15.5269H159.94C160.019 16.7051 161.13 17.2058 162.585 17.2058C164.04 17.2058 164.778 16.7051 164.778 15.8607C164.778 15.036 164.139 14.7022 163.067 14.5549L161.159 14.2996C159.252 14.0443 157.984 13.1607 157.984 11.3247Z" fill="white"/>
<path d="M146.725 13.6615C146.725 10.1662 148.858 8.34985 151.955 8.34985C155.013 8.34985 156.537 10.1564 156.665 11.9237V12.2182H154.511C154.413 11.2659 153.764 10.1859 152.014 10.1859C150.215 10.1859 149.065 11.4131 149.065 13.6615C149.065 15.9 150.205 17.1273 152.014 17.1273C153.794 17.1273 154.423 16.0375 154.531 15.0262H156.704V15.3208C156.547 17.1568 155.042 18.9633 151.955 18.9633C148.848 18.9633 146.725 17.1469 146.725 13.6615Z" fill="white"/>
<path d="M134.766 13.6615C134.766 10.1957 136.968 8.34985 140.124 8.34985C143.26 8.34985 145.472 10.1957 145.472 13.6615C145.472 17.1175 143.26 18.9633 140.124 18.9633C136.968 18.9633 134.766 17.1175 134.766 13.6615ZM137.125 13.6615C137.125 15.9197 138.315 17.1469 140.124 17.1469C141.923 17.1469 143.113 15.9197 143.113 13.6615C143.113 11.3935 141.923 10.176 140.124 10.176C138.315 10.176 137.125 11.3935 137.125 13.6615Z" fill="white"/>
<path d="M126.341 4.58936C130.657 4.58936 133.479 7.26972 133.479 11.6584C133.479 16.0472 130.657 18.7275 126.341 18.7275H120.914V4.58936H126.341ZM123.333 16.6854H126.253C129.094 16.6854 131.021 14.9475 131.021 11.6584C131.021 8.36936 129.094 6.63154 126.253 6.63154H123.333V16.6854Z" fill="white"/>
<path d="M113.424 18.0501C113.424 21.2116 111.694 22.8905 108.449 22.8905C105.274 22.8905 103.632 21.3196 103.464 19.4836V19.189H105.618C105.716 20.1414 106.493 21.0741 108.38 21.0741C110.288 21.0741 111.123 20.0727 111.123 18.2759V17.2057H110.966C110.239 18.1974 109.128 18.5508 107.83 18.5508C105.264 18.5508 103.229 16.8817 103.229 13.465C103.229 10.0385 105.264 8.36938 107.83 8.36938C109.157 8.36938 110.288 8.74248 111.005 9.77339H111.163V8.58539H113.424V18.0501ZM105.578 13.465C105.578 15.5563 106.699 16.7148 108.39 16.7148C110.081 16.7148 111.202 15.5563 111.202 13.465C111.202 11.3639 110.081 10.2054 108.39 10.2054C106.699 10.2054 105.578 11.3639 105.578 13.465Z" fill="white"/>
<path d="M99.0904 8.58547H101.421V18.7277H99.0904V8.58547ZM99.0117 7.07347V4.93311H101.519V7.07347H99.0117Z" fill="white"/>
<path d="M85.9457 8.31043C85.9457 5.92462 87.853 4.36353 91.3531 4.36353C94.8631 4.36353 96.9278 5.96389 97.0851 8.67371V8.96825H94.8238C94.7255 6.98498 93.2703 6.25843 91.3728 6.25843C89.4851 6.25843 88.3053 6.96534 88.3053 8.26134C88.3053 9.55734 89.3475 10.0973 91.1074 10.333L92.6509 10.549C95.5612 10.9515 97.2522 12.1199 97.2522 14.6824C97.2522 17.2843 95.2859 18.9533 91.6874 18.9533C88.0988 18.9533 85.7589 17.2941 85.6016 14.545V14.2504H87.8629C88.0497 16.2828 89.6523 17.0584 91.6579 17.0584C93.644 17.0584 94.9024 16.273 94.9024 14.8003C94.9024 13.3668 93.7914 12.8268 91.9922 12.5813L90.4486 12.3653C87.5581 11.9628 85.9457 10.7061 85.9457 8.31043Z" fill="white"/>
<path d="M76.9648 8.58539H79.2262V5.90503H81.5563V8.58539H84.4272V10.3821H81.5563V16.6461L81.7136 16.8032H84.378V18.7276H82.0282C80.2782 18.7276 79.2262 17.8243 79.2262 16.0963V10.3821H76.9648V8.58539Z" fill="white"/>
<path d="M67.2358 11.3247C67.2358 9.48871 68.7892 8.35962 71.5519 8.35962C74.3245 8.35962 75.9271 9.48871 76.0942 11.4131V11.7076H73.9804C73.9115 10.5 72.948 10.1073 71.5617 10.1073C70.1853 10.1073 69.4381 10.5 69.4381 11.2756C69.4381 12.0414 70.0575 12.3262 70.9325 12.444L72.8399 12.6993C74.8652 12.9742 76.2515 13.8676 76.2515 15.7331C76.2515 17.6182 74.7866 18.9534 71.837 18.9534C68.8678 18.9534 67.1473 17.6182 67.0293 15.8214V15.5269H69.1923C69.2709 16.7051 70.3819 17.2058 71.837 17.2058C73.2921 17.2058 74.0295 16.7051 74.0295 15.8607C74.0295 15.036 73.3905 14.7022 72.3188 14.5549L70.4114 14.2996C68.5041 14.0443 67.2358 13.1607 67.2358 11.3247Z" fill="white"/>
<path d="M55.1699 13.6615C55.1699 10.1957 57.3722 8.34985 60.5282 8.34985C63.6646 8.34985 65.8767 10.1957 65.8767 13.6615C65.8767 17.1175 63.6646 18.9633 60.5282 18.9633C57.3722 18.9633 55.1699 17.1175 55.1699 13.6615ZM57.5295 13.6615C57.5295 15.9197 58.7192 17.1469 60.5282 17.1469C62.3275 17.1469 63.5171 15.9197 63.5171 13.6615C63.5171 11.3935 62.3275 10.176 60.5282 10.176C58.7192 10.176 57.5295 11.3935 57.5295 13.6615Z" fill="white"/>
<path d="M50.0486 4.58936C52.6147 4.58936 54.6597 6.10136 54.6597 8.80136C54.6597 11.5014 52.6147 13.0428 50.0486 13.0428H46.1061V18.7275H43.6973V4.58936H50.0486ZM46.1061 11.0497H49.6553C51.2284 11.0497 52.2706 10.2544 52.2706 8.82099C52.2706 7.3679 51.2284 6.58245 49.6553 6.58245H46.1061V11.0497Z" fill="white"/>
</svg>
